<svg xmlns="http://www.w3.org/2000/svg" viewBox="0 0 211.85 240.77"><g id="Layer_2" data-name="Layer 2"><g id="Layer_1-2" data-name="Layer 1"><path d="M202.07,111.78,169.26,91.66l-15.95-9.78L131.2,68.32a25.37,25.37,0,0,0,1.55-9.89,25.54,25.54,0,0,0-49.4-8,25.53,25.53,0,0,0,42.77,26.22l8.48,5.2,16,9.78,51.52,31.59v47.07l-25.21-14.65-1.09-.63-8.7-5.06L159,145.27,71.69,94.55a25.79,25.79,0,0,0,1-2.89A25.43,25.43,0,0,0,73.53,85a25.13,25.13,0,0,0-.2-3.15,25.54,25.54,0,0,0-49.84-4,23.42,23.42,0,0,0-.83,4,25.13,25.13,0,0,0-.2,3.15,25.53,25.53,0,0,0,43.9,17.74l73.13,42.5L156.3,155l.92.53,9.79,5.69,29.64,17.23-40,22.69-9.84,5.59-41.59,23.6L75.59,213.14l-9.79-5.69-56-32.56V150.15a4.89,4.89,0,0,0-4.88-4.88h0A4.89,4.89,0,0,0,0,150.15v27.09a5.69,5.69,0,0,0,2.82,4.91l7,4L56,213l9.79,5.69L95.39,236l7,4.05a5.69,5.69,0,0,0,5.66,0l7-4,41.58-23.6,9.84-5.58,35.63-20.22,4.36-2.48,2.54-1.44a5.67,5.67,0,0,0,2.88-4.94V121a5.68,5.68,0,0,0-2.71-4.84Zm-78.6-48.2a16.74,16.74,0,0,1-33-4.09,16.46,16.46,0,0,1,.56-4.3A16.74,16.74,0,0,1,124,59.49,16.25,16.25,0,0,1,123.47,63.58ZM64,90.06a16.46,16.46,0,0,1-5.58,8.08A16.58,16.58,0,0,1,48,101.77,16.71,16.71,0,0,1,31.26,85a17.79,17.79,0,0,1,.19-2.55c0-.2.07-.4.11-.6A16.76,16.76,0,0,1,48,68.29,16.74,16.74,0,0,1,64.44,81.88a16.33,16.33,0,0,1,.3,3.15A16.74,16.74,0,0,1,64,90.06Z" style="fill:#3db2ff"/><path d="M202.07,55.46,115,4.82,108,.77a5.67,5.67,0,0,0-5.66,0l-7,4-35.24,20-9.72,5.52-40.59,23L5.16,55.88l-2.29,1.3A5.68,5.68,0,0,0,0,62.11v56.06a5.69,5.69,0,0,0,2.82,4.91l7,4L41,145.27,57.81,155l23.6,13.72a25.56,25.56,0,0,0,16,32,25.55,25.55,0,0,0,32.27-15.28,25.91,25.91,0,0,0,1-3.62h0a25.8,25.8,0,0,0,.54-5.24A25.53,25.53,0,0,0,92.07,155a25.2,25.2,0,0,0-5.92,5.17L77.26,155l-16.81-9.77L9.77,115.81V64.51L15,61.57l44.93-25.5,9.72-5.52,35.51-20.14,97,56.35v20A4.89,4.89,0,0,0,207,91.66h0a4.89,4.89,0,0,0,4.89-4.89V64.41A5.67,5.67,0,0,0,209,59.5ZM89.29,173.34a16.74,16.74,0,0,1,33.1,2c0,.42.06.86.06,1.29a16.43,16.43,0,0,1-.58,4.35A16.74,16.74,0,0,1,89,176.62,16.89,16.89,0,0,1,89.29,173.34Z" style="fill:#ffb830"/></g></g></svg>